<?xml version="1.0" encoding="utf-8"?>
<!-- Generator: Adobe Illustrator 16.0.3, SVG Export Plug-In . SVG Version: 6.00 Build 0)  -->
<!DOCTYPE svg PUBLIC "-//W3C//DTD SVG 1.1//EN" "http://www.w3.org/Graphics/SVG/1.1/DTD/svg11.dtd">
<svg version="1.1" xmlns="http://www.w3.org/2000/svg" xmlns:xlink="http://www.w3.org/1999/xlink" x="0px" y="0px" width="800px"
	 height="164.992px" viewBox="0 0 800 164.992" enable-background="new 0 0 800 164.992" xml:space="preserve">
<g id="Layer_1">
	
		<image display="none" overflow="visible" width="200" height="200" xlink:href="Enroll Media Logo.png"  transform="matrix(3.4599 0 0 3.4599 56.5513 -248.5796)">
	</image>
	<rect x="2.536" y="-302.595" display="none" fill="#FFFFFF" width="800" height="800"/>
	<g id="ver_1" display="none">
		<g id="book_2_" display="inline">
			<g>
				<g>
					<path fill="#658113" d="M193.293,154.786c-12.64,7.629-25.289,15.241-37.958,22.821c-10.559,6.317-20.988,13.083-32.178,18.251
						c-3.486,1.61-8.284,3.816-12.184,2.585c-2.38-0.752-4.683-2.128-6.893-3.263c-22.084-11.346-43.235-24.774-64.293-37.902
						c-1.647-1.027-3.152,1.569-1.515,2.59c21.855,13.626,43.809,27.775,66.902,39.221c5.59,2.771,9.495,3.178,15.563,0.998
						c11.577-4.157,22.192-11.535,32.67-17.828c13.802-8.29,27.614-16.563,41.398-24.883
						C196.461,156.377,194.954,153.783,193.293,154.786L193.293,154.786z"/>
				</g>
			</g>
			<g>
				<g>
					<path fill="#658113" d="M194.096,176.837c-19.236,12.067-38.817,23.761-58.621,34.868c-7.2,4.038-18.4,11.032-27.025,8.158
						c-5.937-1.979-11.557-5.264-17.036-8.231c-14.2-7.691-28.037-16.072-41.793-24.526c-3.094-1.901-6.182-3.812-9.257-5.742
						c1.049,0.658,0.585,0.734,0.216-0.802c-0.425-1.774-0.773-3.565-1.097-5.359c-1-5.546-1.718-11.7-0.07-17.183
						c0.559-1.857-2.337-2.645-2.893-0.797c-2.405,7.998-0.543,17.248,1.419,25.174c0.551,2.225,3.935,3.447,5.704,4.545
						c12.979,8.047,26.061,15.942,39.356,23.456c6.375,3.603,12.808,7.154,19.461,10.222c4.931,2.273,8.425,3.269,13.891,2.303
						c12.339-2.181,23.808-10.358,34.338-16.645c11.911-7.111,23.966-13.961,35.798-21.205c3.049-1.867,6.092-3.745,9.122-5.646
						C197.245,178.403,195.74,175.806,194.096,176.837L194.096,176.837z"/>
				</g>
			</g>
			<g>
				<g>
					<path fill="#658113" d="M38.645,157.524c0.021-4.306-2.518-16.354,1.738-18.982c2.844-1.757,5.822-3.301,8.794-4.824
						c7.838-4.017,15.871-7.66,23.909-11.254c15.324-6.85,30.81-13.343,46.35-19.686c1.56-0.637,3.121-1.271,4.683-1.901
						c1.628-0.658-1.135-0.827,0.325-0.159c3.865,1.767,7.722,3.549,11.577,5.338c13.844,6.427,27.663,12.93,41.285,19.819
						c4.957,2.507,9.974,5.009,14.669,7.989c0.555,0.353,1.11,0.718,1.617,1.138c0.856,0.709,1.726-1.641,0.683-1.289
						c-1.553,0.522-3.038,1.319-4.498,2.052c-13.221,6.631-25.997,14.205-38.941,21.353c-12.572,6.942-25.296,14.788-38.791,19.839
						c-3.634,1.359-5.453,0.098-8.917-1.655c-6.642-3.359-13.087-7.124-19.521-10.86c-14.236-8.269-29.111-16.31-42.505-25.921
						c-1.576-1.131-3.071,1.474-1.515,2.59c10.512,7.543,22.117,13.863,33.225,20.465c7.279,4.325,14.593,8.596,22.004,12.69
						c4.14,2.287,8.501,5.075,13.083,6.407c2.896,0.843,6.881-1.553,9.393-2.666c6.353-2.813,12.504-6.103,18.635-9.364
						c14.878-7.915,29.516-16.272,44.29-24.38c4.562-2.503,9.12-5.093,13.86-7.249c1.95-0.888,3.967-2.057,1.638-4.132
						c-3.158-2.813-7.434-4.676-11.134-6.628c-6.558-3.461-13.226-6.717-19.899-9.948c-12.068-5.845-24.22-11.52-36.406-17.116
						c-1.643-0.755-3.178-1.921-4.953-1.205c-4.53,1.828-9.049,3.684-13.563,5.551c-15.937,6.591-31.817,13.339-47.483,20.555
						c-6.903,3.179-13.788,6.442-20.436,10.133c-3.147,1.747-4.645,2.607-5.798,6.166c-1.757,5.422-0.37,11.576-0.396,17.136
						C35.635,159.458,38.635,159.458,38.645,157.524L38.645,157.524z"/>
				</g>
			</g>
			<path fill="#658113" d="M186.81,149.633c0,0,7.241,1.297,9.849,3.66c2.245,4.83-10.379,9.666-10.379,9.666L186.81,149.633z"/>
			<path fill="#658113" d="M189.51,171.234c0,0,5.891,1.296,8.499,3.659c2.245,4.831-9.029,8.316-9.029,8.316
				s1.694-4.877,1.763-6.428C190.807,175.34,189.51,171.234,189.51,171.234z"/>
		</g>
		<g id="apple_2_" display="inline">
			<path fill="#658113" d="M124.247-3.606c0,0,0-27.749,33.642-19.154l3.929,1.719c0,0-7.121,4.242-8.349,7.032
				c-1.228,2.791-10.068,17.278-22.346,16.05l-6.875-1.719c0,0,11.787-15.961,19.891-18.171s-7.962-0.144-13.751,5.402
				C124.596-6.901,124.247-3.606,124.247-3.606z"/>
			<path fill="#658113" d="M182.535,57.448c-1.712-25.917-11.967-41.107-27.919-45.137c-15.345-3.876-33.374,3.126-33.374,3.126
				c0.149-2.975,1.717-11.338,0.794-19.662c-1.211-10.947-4.722-15.482-5.968-18.417c-2.193-5.164-13.533-4.202-13.533-4.202v9.432
				c0,0,2.808,2.409,6.252,3.098c3.443,0.688,7.148,12.74,7.148,12.74s1.36,12.468-2.444,16.782
				c-0.751,0.854-3.206,1.572-3.206,1.572C63.127,3.358,54.434,42.941,55.122,69.111c0.315,12.01,3.465,23.419,12.37,35.174
				c10.498,13.856,23.522,20.485,30.186,20.854c15.769,0.877,15.352-4.472,19.652-4.688c2.424-0.122,5.65,3.087,8.39,3.538
				c12.397,2.033,19.605,1.258,25.121-1.777C166.901,113.376,184.946,93.949,182.535,57.448z M150.829,57.875
				c-7.562,5.699-10.945,5.371-10.945,5.371s6.259-7.414,5.542-10.586c-0.718-3.172-1.86-10.245,4.865-11.674
				C157.018,39.557,158.391,52.176,150.829,57.875z"/>
		</g>
	</g>
	<g id="old_ver_2_lines" display="none">
		<g display="inline">
			<g>
				<g>
					<path fill="#658113" d="M165.771,123.356c-13.127,7.907-26.459,15.518-40.124,22.462c-5.614,2.853-11.323,5.659-17.284,7.719
						c-4,1.382-5.847,0.851-9.628-0.751c-17.833-7.554-35.383-15.821-52.942-23.987c-1.742-0.811-3.267,1.775-1.514,2.59
						c18.111,8.423,36.212,16.955,54.626,24.699c3.317,1.395,5.311,1.782,8.84,0.79c5.54-1.559,10.851-4.258,16.001-6.768
						c14.91-7.267,29.338-15.609,43.54-24.164C168.94,124.95,167.433,122.355,165.771,123.356L165.771,123.356z"/>
				</g>
			</g>
			<path fill="#658113" d="M160.625,119.396c0,0,5.903,1.058,8.029,2.983c1.83,3.938-8.46,7.879-8.46,7.879L160.625,119.396z"/>
		</g>
		<g display="inline">
			<g>
				<g>
					<path fill="#658113" d="M168.771,142.356c-13.127,7.907-26.459,15.518-40.124,22.462c-5.614,2.853-11.323,5.659-17.284,7.719
						c-4,1.382-5.847,0.851-9.628-0.751c-17.833-7.554-35.383-15.821-52.942-23.987c-1.742-0.811-3.267,1.775-1.514,2.59
						c18.111,8.423,36.212,16.955,54.626,24.699c3.317,1.395,5.311,1.782,8.84,0.79c5.54-1.559,10.851-4.258,16.001-6.768
						c14.91-7.267,29.338-15.609,43.54-24.164C171.94,143.95,170.433,141.355,168.771,142.356L168.771,142.356z"/>
				</g>
			</g>
			<path fill="#658113" d="M163.625,138.396c0,0,5.903,1.058,8.029,2.983c1.83,3.938-8.46,7.879-8.46,7.879L163.625,138.396z"/>
		</g>
		<g display="inline">
			<g>
				<g>
					<path fill="#658113" d="M167.425,145.332c-7.247,4.057-14.577,7.969-21.945,11.801c-11.46,5.96-23.237,12.45-35.638,16.241
						c-3.673,1.124-6.236,0.568-9.837-0.626c-6.654-2.207-13.094-5.114-19.473-8.001c-13.131-5.942-26.6-12.162-38.633-20.157
						c-1.616-1.074-3.117,1.525-1.514,2.59c12.37,8.22,26.23,14.545,39.726,20.652c6.259,2.833,12.594,5.581,19.097,7.809
						c3.582,1.227,6.56,1.876,10.261,0.954c12.083-3.011,23.72-9.783,34.712-15.419c8.328-4.271,16.592-8.682,24.758-13.254
						C170.627,146.977,169.115,144.385,167.425,145.332L167.425,145.332z"/>
				</g>
			</g>
			<path fill="#658113" d="M163.827,141.003c0,0,4.801,1.056,6.928,2.982c1.83,3.938-7.36,6.779-7.36,6.779s1.381-3.976,1.437-5.239
				C164.884,144.35,163.827,141.003,163.827,141.003z"/>
		</g>
	</g>
	<g id="ver_3_1_" display="none">
		<g display="inline">
			<g>
				<path fill="#658113" d="M169.589,104.204c-9.905,4.892-19.317,10.993-28.926,16.434c-11.258,6.375-22.963,14.158-35.332,18.213
					c-2.971,0.974-6.496-1.656-9.099-2.922c-6.726-3.268-13.334-6.783-19.929-10.307c-10.392-5.551-21.662-10.71-31.311-17.524
					c-1.584-1.119-3.081,1.483-1.514,2.59c9.94,7.021,21.563,12.318,32.27,18.038c6.5,3.472,13.025,6.906,19.654,10.127
					c2.785,1.353,6.416,3.813,9.661,3.182c4.484-0.872,8.948-3.607,12.963-5.645c7.218-3.663,14.292-7.614,21.347-11.579
					c10.56-5.936,20.865-12.65,31.729-18.017C172.838,105.937,171.317,103.35,169.589,104.204L169.589,104.204z"/>
			</g>
		</g>
		<g display="inline">
			<g>
				<path fill="#658113" d="M167.589,120.204c-9.905,4.892-19.317,10.993-28.926,16.434c-11.258,6.375-22.963,14.158-35.332,18.213
					c-2.971,0.974-6.496-1.656-9.099-2.922c-6.726-3.268-13.334-6.783-19.929-10.307c-10.392-5.551-21.662-10.71-31.311-17.524
					c-1.584-1.119-3.081,1.483-1.514,2.59c9.94,7.021,21.563,12.318,32.27,18.038c6.5,3.472,13.025,6.906,19.654,10.127
					c2.785,1.353,6.416,3.813,9.661,3.182c4.484-0.872,8.948-3.607,12.963-5.645c7.218-3.663,14.292-7.614,21.347-11.579
					c10.56-5.936,20.865-12.65,31.729-18.017C170.838,121.937,169.317,119.35,167.589,120.204L167.589,120.204z"/>
			</g>
		</g>
		<g display="inline">
			<g>
				<path fill="#658113" d="M168.589,137.204c-9.905,4.892-19.317,10.993-28.926,16.434c-11.258,6.375-22.963,14.158-35.332,18.213
					c-2.971,0.974-6.496-1.656-9.099-2.922c-6.726-3.268-13.334-6.783-19.929-10.307c-10.392-5.551-21.662-10.71-31.311-17.524
					c-1.584-1.119-3.081,1.483-1.514,2.59c9.94,7.021,21.563,12.318,32.27,18.038c6.5,3.472,13.025,6.906,19.654,10.127
					c2.785,1.353,6.416,3.813,9.661,3.182c4.484-0.872,8.948-3.607,12.963-5.645c7.218-3.663,14.292-7.614,21.347-11.579
					c10.56-5.936,20.865-12.65,31.729-18.017C171.838,138.937,170.317,136.35,168.589,137.204L168.589,137.204z"/>
			</g>
		</g>
		<g display="inline">
			<g>
				<path fill="#658113" d="M43.296,140.781c-0.896-0.993-0.594-6.134-0.662-7.742c-0.195-4.574-0.152-9.161,0.038-13.734
					c0.142-3.407,0.285-6.962,1.254-10.251c0.502-1.705,6.722-3.919,8.236-4.688c16.082-8.184,32.864-15.082,49.526-21.98
					c3.839-1.589,7.683-3.167,11.539-4.718c-0.7,0.281-1.607-0.375-0.521,0.122c0.58,0.265,1.16,0.531,1.74,0.797
					c2.299,1.055,4.595,2.116,6.89,3.18c13.476,6.249,26.991,12.502,40.117,19.462c1.805,0.957,3.595,1.944,5.347,2.995
					c0.597,0.358,1.181,0.736,1.752,1.133c1.704,1.18-1.097-0.32,1.395-1.304c-1.778,0.701-1.004,3.604,0.798,2.893
					c3.422-1.351-0.603-4.169-2.026-5.063c-5.157-3.239-10.744-5.867-16.191-8.567c-12.202-6.049-24.552-11.805-36.928-17.485
					c-2.339-1.073-3.049-1.107-5.458-0.13c-6.063,2.459-12.108,4.965-18.14,7.501c-15.878,6.676-32.106,13.211-47.149,21.654
					c-2.579,1.447-3.635,2.212-4.25,5.148c-0.853,4.073-0.927,8.357-1.039,12.499c-0.127,4.695-0.052,9.408,0.264,14.095
					c0.125,1.855,0.002,4.813,1.349,6.305C42.474,144.341,44.589,142.212,43.296,140.781L43.296,140.781z"/>
			</g>
		</g>
		<g id="apple_3_" display="inline">
			<path fill="#658113" d="M114.107,35.507c0,0,0-15.27,18.513-10.54l2.162,0.946c0,0-3.918,2.334-4.594,3.87
				c-0.675,1.536-5.54,9.508-12.297,8.832l-3.783-0.946c0,0,6.486-8.783,10.945-10c4.459-1.216-4.381-0.079-7.567,2.973
				C114.299,33.694,114.107,35.507,114.107,35.507z"/>
			<path fill="#658113" d="M146.182,69.104c-0.942-14.262-6.585-22.621-15.363-24.838c-8.444-2.133-18.365,1.72-18.365,1.72
				c0.083-1.637,0.945-6.239,0.438-10.819c-0.667-6.024-2.411-8.52-3.096-10.135c-1.207-2.841-7.259-2.312-7.259-2.312v5.19
				c0,0,1.357,1.326,3.253,1.705c1.894,0.379,3.839,7.011,3.839,7.011s0.702,6.861-1.392,9.235c-0.414,0.47-1.788,0.865-1.788,0.865
				C80.497,39.34,75.701,61.122,76.08,75.522c0.174,6.609,1.901,12.888,6.802,19.355c5.777,7.625,12.94,11.272,16.607,11.476
				c8.678,0.482,8.447-2.46,10.813-2.579c1.334-0.067,3.108,1.698,4.615,1.947c6.822,1.118,10.789,0.691,13.824-0.979
				C137.579,99.881,147.509,89.19,146.182,69.104z M128.735,69.339c-4.161,3.137-6.023,2.956-6.023,2.956s3.444-4.08,3.049-5.826
				c-0.395-1.745-1.023-5.637,2.678-6.423C132.14,59.26,132.896,66.204,128.735,69.339z"/>
		</g>
		<path display="inline" fill="#658113" d="M164.625,114.396c0,0,5.903,1.058,8.029,2.983c1.83,3.938-8.46,7.879-8.46,7.879
			L164.625,114.396z"/>
		<path display="inline" fill="#658113" d="M167.625,130.396c0,0,5.903,1.058,8.029,2.983c1.83,3.938-8.46,7.879-8.46,7.879
			L167.625,130.396z"/>
	</g>
	<g id="enroll_media">
		<path fill="#658113" d="M242.82,89.161h-24.105v15.552h26.924v12.149h-41.795V51.351h40.435V63.5h-25.563v13.608h24.105V89.161z"
			/>
		<path fill="#658113" d="M255.262,84.495c0-5.928-0.194-10.983-0.389-15.163h12.83l0.68,6.513h0.292
			c1.944-3.013,6.804-7.582,14.677-7.582c9.72,0,17.01,6.415,17.01,20.411v28.188h-14.774V90.521c0-6.123-2.138-10.302-7.484-10.302
			c-4.083,0-6.513,2.818-7.484,5.54c-0.389,0.875-0.583,2.333-0.583,3.693v27.41h-14.774V84.495z"/>
		<path fill="#658113" d="M312.221,84.981c0-6.999-0.194-11.566-0.389-15.649h12.733l0.486,8.748h0.389
			c2.43-6.901,8.262-9.817,12.831-9.817c1.36,0,2.041,0,3.11,0.194v13.899c-1.069-0.194-2.333-0.389-3.985-0.389
			c-5.443,0-9.137,2.916-10.109,7.484c-0.194,0.972-0.292,2.139-0.292,3.305v24.105h-14.774V84.981z"/>
		<path fill="#658113" d="M395.325,92.562c0,17.398-12.344,25.369-25.077,25.369c-13.899,0-24.591-9.137-24.591-24.494
			c0-15.357,10.109-25.174,25.369-25.174C385.605,68.263,395.325,78.274,395.325,92.562z M360.917,93.048
			c0,8.164,3.402,14.288,9.721,14.288c5.734,0,9.428-5.734,9.428-14.288c0-7.096-2.722-14.288-9.428-14.288
			C363.542,78.761,360.917,86.05,360.917,93.048z"/>
		<path fill="#658113" d="M404.461,47.852h14.775v69.01h-14.775V47.852z"/>
		<path fill="#658113" d="M431.192,47.852h14.773v69.01h-14.773V47.852z"/>
		<path fill="#658113" d="M533.444,91.785c-0.291-7.873-0.582-17.398-0.582-26.923h-0.293c-2.041,8.359-4.762,17.689-7.289,25.368
			l-7.971,25.563h-11.566l-6.998-25.369c-2.139-7.677-4.375-17.008-5.93-25.562h-0.193c-0.389,8.845-0.682,18.953-1.168,27.118
			l-1.166,24.883h-13.705l4.18-65.511h19.732l6.414,21.87c2.041,7.582,4.082,15.746,5.541,23.424h0.291
			c1.848-7.581,4.082-16.231,6.221-23.521l6.998-21.772h19.344l3.596,65.511h-14.482L533.444,91.785z"/>
		<path fill="#658113" d="M571.45,97.811c0.484,6.123,6.512,9.039,13.412,9.039c5.055,0,9.137-0.68,13.123-1.943l1.943,10.011
			c-4.859,1.944-10.789,2.916-17.205,2.916c-16.135,0-25.367-9.331-25.367-24.202c0-12.052,7.482-25.368,24.008-25.368
			c15.357,0,21.189,11.956,21.189,23.716c0,2.527-0.293,4.763-0.486,5.832H571.45z M588.848,87.703c0-3.597-1.557-9.623-8.359-9.623
			c-6.221,0-8.748,5.637-9.137,9.623H588.848z"/>
		<path fill="#658113" d="M657.469,47.852v54.819c0,5.347,0.195,10.983,0.389,14.191h-13.121l-0.68-6.998h-0.195
			c-3.014,5.346-8.748,8.067-14.871,8.067c-11.275,0-20.314-9.623-20.314-24.396c-0.098-16.038,9.914-25.271,21.287-25.271
			c5.832,0,10.4,2.041,12.537,5.346h0.195V47.852H657.469z M642.696,89.452c0-0.777-0.098-1.847-0.195-2.624
			c-0.873-3.985-4.082-7.29-8.65-7.29c-6.707,0-10.205,6.026-10.205,13.51c0,8.067,3.984,13.122,10.109,13.122
			c4.275,0,7.678-2.916,8.553-7.096c0.291-1.069,0.389-2.139,0.389-3.402V89.452z"/>
		<path fill="#658113" d="M684.588,56.113c0,4.083-3.109,7.387-7.971,7.387c-4.664,0-7.775-3.305-7.678-7.387
			c-0.098-4.277,3.014-7.484,7.775-7.484C681.479,48.629,684.491,51.836,684.588,56.113z M669.329,116.862v-47.53h14.773v47.53
			H669.329z"/>
		<path fill="#658113" d="M722.981,116.862l-0.875-4.763h-0.291c-3.109,3.791-7.971,5.832-13.607,5.832
			c-9.623,0-15.357-6.998-15.357-14.58c0-12.344,11.08-18.273,27.896-18.176v-0.681c0-2.527-1.361-6.123-8.65-6.123
			c-4.861,0-10.012,1.652-13.123,3.596l-2.721-9.525c3.305-1.847,9.816-4.179,18.467-4.179c15.844,0,20.898,9.331,20.898,20.508
			v16.524c0,4.568,0.193,8.942,0.68,11.566H722.981z M721.233,94.409c-7.777-0.097-13.803,1.75-13.803,7.484
			c0,3.791,2.527,5.638,5.832,5.638c3.693,0,6.707-2.43,7.678-5.443c0.195-0.777,0.293-1.652,0.293-2.527V94.409z"/>
	</g>
	<g id="ver_4">
		<g>
			<g>
				<path fill="#658113" d="M165.461,86.992c-7.84,3.89-15.298,8.705-22.91,13.016c-8.927,5.056-18.256,11.313-28.093,14.459
					c-2.199,0.704-5.199-1.533-7.108-2.464c-5.236-2.552-10.382-5.29-15.519-8.033c-8.247-4.404-17.146-8.511-24.818-13.892
					c-1.588-1.114-3.085,1.489-1.514,2.591c7.963,5.584,17.209,9.828,25.768,14.399c5.26,2.809,10.542,5.588,15.914,8.179
					c2.205,1.063,4.835,2.78,7.378,2.299c3.441-0.652,6.884-2.759,9.965-4.312c5.667-2.857,11.213-5.956,16.747-9.061
					c8.56-4.803,16.908-10.227,25.703-14.59C168.708,88.723,167.188,86.136,165.461,86.992L165.461,86.992z"/>
			</g>
		</g>
		<g>
			<g>
				<path fill="#658113" d="M163.875,99.675c-7.84,3.89-15.297,8.704-22.91,13.016c-8.927,5.056-18.256,11.313-28.092,14.459
					c-2.199,0.704-5.2-1.533-7.108-2.464c-5.235-2.552-10.382-5.29-15.519-8.033c-8.247-4.404-17.145-8.512-24.818-13.892
					c-1.588-1.114-3.085,1.488-1.515,2.59c7.964,5.585,17.209,9.828,25.769,14.399c5.26,2.809,10.542,5.588,15.914,8.179
					c2.206,1.063,4.836,2.78,7.379,2.299c3.441-0.652,6.884-2.759,9.964-4.312c5.667-2.857,11.214-5.955,16.747-9.061
					c8.56-4.803,16.908-10.227,25.704-14.591C167.123,101.406,165.603,98.818,163.875,99.675L163.875,99.675z"/>
			</g>
		</g>
		<g>
			<g>
				<path fill="#658113" d="M164.668,113.15c-7.84,3.892-15.297,8.705-22.91,13.016c-8.927,5.057-18.256,11.313-28.093,14.46
					c-2.199,0.704-5.199-1.534-7.108-2.464c-5.236-2.552-10.382-5.291-15.519-8.034c-8.247-4.404-17.145-8.512-24.819-13.892
					c-1.588-1.114-3.085,1.488-1.514,2.59c7.964,5.585,17.209,9.828,25.769,14.399c5.26,2.809,10.542,5.589,15.914,8.179
					c2.205,1.063,4.835,2.781,7.378,2.3c3.441-0.652,6.884-2.759,9.965-4.313c5.667-2.856,11.213-5.955,16.747-9.06
					c8.56-4.803,16.908-10.226,25.703-14.592C167.916,114.879,166.395,112.292,164.668,113.15L164.668,113.15z"/>
			</g>
		</g>
		<g>
			<g>
				<path fill="#658113" d="M65.731,116.034c-0.834-1.021-0.425-5.622-0.472-7.04c-0.13-3.887-0.061-7.784,0.173-11.666
					c0.183-3.031-0.068-5.66,2.668-7.229c2.775-1.592,5.662-2.994,8.541-4.386c13.264-6.413,26.917-12.06,40.55-17.632
					c1.207-0.493,2.416-0.984,3.625-1.472c0.76-0.307-1.452-0.478-0.736-0.151c0.493,0.225,0.985,0.451,1.478,0.676
					c4.729,2.169,9.446,4.366,14.153,6.584c6.256,2.947,12.493,5.938,18.666,9.054c2.43,1.227,4.846,2.483,7.222,3.813
					c0.757,0.423,1.503,0.866,2.239,1.325c2.374,1.482-0.495,0.001,1.623-0.917c-1.771,0.769-0.242,3.353,1.514,2.591
					c3.572-1.55-2.971-5.083-3.861-5.589c-6.156-3.5-12.604-6.52-18.982-9.583c-6.264-3.008-12.56-5.949-18.87-8.859
					c-2.479-1.144-3.96-2.354-6.542-1.309c-14.668,5.944-29.315,12.042-43.592,18.881c-3.096,1.482-6.168,3.025-9.146,4.733
					c-2.51,1.439-2.855,2.992-3.204,5.838c-0.898,7.347-1.125,15.361,0.066,22.692c0.109,0.674,0.336,1.243,0.766,1.769
					C64.835,119.654,66.944,117.518,65.731,116.034L65.731,116.034z"/>
			</g>
		</g>
		<g id="apple">
			<path fill="#658113" d="M121.64,32.809c0,0,0-12.104,14.674-8.354l1.713,0.75c0,0-3.106,1.851-3.642,3.067
				c-0.535,1.218-4.391,7.537-9.747,7.001l-2.999-0.75c0,0,5.141-6.962,8.676-7.926c3.535-0.964-3.473-0.063-5.998,2.356
				C121.792,31.371,121.64,32.809,121.64,32.809z"/>
			<path fill="#658113" d="M147.064,59.439c-0.747-11.305-5.22-17.931-12.178-19.688c-6.693-1.691-14.558,1.363-14.558,1.363
				c0.065-1.297,0.75-4.945,0.347-8.576c-0.528-4.775-1.876-6.753-2.42-8.034c-0.957-2.252-5.72-1.833-5.72-1.833v4.114
				c0,0,1.042,1.051,2.544,1.351c1.501,0.3,3.026,5.557,3.026,5.557s0.548,5.438-1.112,7.32c-0.327,0.372-1.421,0.686-1.421,0.686
				C95.003,35.847,91.2,53.112,91.5,64.526c0.138,5.239,1.505,10.215,5.39,15.342c4.579,6.044,10.256,8.936,13.164,9.097
				c6.878,0.382,6.695-1.95,8.571-2.045c1.058-0.053,2.463,1.346,3.658,1.543c5.407,0.887,8.552,0.548,10.957-0.776
				C140.245,83.834,148.116,75.36,147.064,59.439z M133.234,59.625c-3.298,2.486-4.774,2.343-4.774,2.343s2.73-3.234,2.417-4.618
				c-0.313-1.383-0.812-4.468,2.123-5.092C135.934,51.636,136.533,57.14,133.234,59.625z"/>
		</g>
		<path fill="#658113" d="M161.684,95.34c0,0,4.679,0.838,6.364,2.364c1.45,3.121-6.706,6.245-6.706,6.245L161.684,95.34z"/>
		<path fill="#658113" d="M164.062,108.022c0,0,4.679,0.839,6.364,2.365c1.45,3.121-6.706,6.245-6.706,6.245L164.062,108.022z"/>
	</g>
</g>
<g id="Layer_2">
	<g>
		<g id="book_1_">
			<g>
				<g>
					<path fill="#658113" d="M1303.262,170.162c-13.84,8.353-27.689,16.687-41.56,24.986c-11.559,6.917-22.98,14.353-35.257,19.958
						c-3.766,1.72-8.91,4.051-13.105,2.702c-2.543-0.817-4.998-2.264-7.365-3.478c-24.167-12.389-47.303-27.091-70.336-41.45
						c-1.646-1.027-3.151,1.569-1.514,2.59c23.45,14.62,47.006,29.614,71.663,42.128c5.632,2.858,9.698,4.367,16.039,2.489
						c12.302-3.644,23.666-11.707,34.544-18.243c14.536-8.734,29.09-17.438,43.61-26.199c1.598-0.964,3.196-1.929,4.794-2.894
						C1306.43,171.753,1304.922,169.159,1303.262,170.162L1303.262,170.162z"/>
				</g>
			</g>
			<g>
				<g>
					<path fill="#658113" d="M1304.138,194.221c-19.406,12.176-39.239,23.67-59.018,35.227c-5.871,3.431-11.851,6.725-18.153,9.299
						c-4.035,1.648-9.697,3.852-14.123,3.069c-5-0.884-9.929-3.9-14.38-6.186c-14.723-7.557-28.942-16.138-43.091-24.707
						c-5.192-3.146-10.366-6.322-15.522-9.526c-1.105-0.687-2.209-1.375-3.312-2.066c-0.906-0.568,0.448,1.05,0.287,0.437
						c-0.361-1.379-0.666-2.771-0.962-4.165c-1.488-7.012-2.832-15.063-0.696-22.065c0.566-1.855-2.33-2.643-2.893-0.797
						c-2.524,8.274-0.677,17.752,1.209,25.993c0.687,2.997,1.925,3.433,4.453,5.007c12.143,7.557,24.38,14.965,36.748,22.146
						c11.414,6.628,23.515,14.768,36.281,18.559c7.227,2.146,16.264-2.374,22.61-5.358c13.174-6.194,25.474-14.447,38.061-21.727
						c11.465-6.631,22.796-13.51,34.014-20.549C1307.286,195.786,1305.782,193.19,1304.138,194.221L1304.138,194.221z"/>
				</g>
			</g>
			<g>
				<g>
					<path fill="#658113" d="M1134.325,173.031c0.019-3.018-0.224-6.021-0.369-9.033c-0.119-2.485-0.706-9.88,1.714-11.412
						c2.7-1.709,5.534-3.212,8.364-4.693c7.557-3.954,15.316-7.527,23.081-11.049c16.362-7.423,32.925-14.406,49.536-21.248
						c3.836-1.579,7.676-3.148,11.522-4.699c0.745-0.301-1.597-0.678,0.032,0.067c1.467,0.67,2.933,1.344,4.398,2.018
						c12.575,5.787,25.112,11.662,37.576,17.685c10.956,5.294,22.807,10.226,32.82,17.226c0.389,0.271,0.751,0.568,1.074,0.916
						c-0.956-1.028,1.638-2.173-0.206-1.462c-1.655,0.638-3.244,1.456-4.825,2.255c-5.602,2.831-11.085,5.901-16.577,8.937
						c-15.029,8.306-29.976,16.768-45.146,24.817c-6.096,3.234-12.229,6.428-18.521,9.265c-2.694,1.214-6.236,3.329-9.083,2.259
						c-5.335-2.007-10.382-5.159-15.338-7.931c-7.872-4.4-15.646-8.98-23.394-13.596c-11.338-6.754-23.183-13.227-33.914-20.938
						c-1.574-1.132-3.069,1.473-1.514,2.59c10.15,7.295,21.341,13.417,32.054,19.827c12.845,7.688,25.746,15.922,39.396,22.132
						c7.484,3.405,16.257-3.027,22.842-6.352c15.144-7.646,29.92-16.029,44.743-24.273c6.549-3.643,13.095-7.292,19.691-10.848
						c3.548-1.912,7.202-4.215,11.048-5.493c6.365-2.115-11.658-10.936-12.825-11.546c-13.575-7.101-27.459-13.625-41.325-20.132
						c-5.521-2.59-11.051-5.158-16.589-7.709c-1.211-0.558-5.322-3.369-6.84-2.759c-16.229,6.521-32.361,13.298-48.393,20.29
						c-11.604,5.061-23.179,10.234-34.479,15.947c-3.816,1.929-7.611,3.935-11.227,6.224c-2.263,1.433-2.438,6.533-2.667,8.895
						c-0.444,4.58,0.364,9.235,0.336,13.824C1131.313,174.966,1134.313,174.964,1134.325,173.031L1134.325,173.031z"/>
				</g>
			</g>
			<path fill="#658113" d="M1296.118,164.422c0,0,7.901,1.415,10.746,3.993c2.449,5.27-11.324,10.546-11.324,10.546
				L1296.118,164.422z"/>
			<path fill="#658113" d="M1299.064,187.99c0,0,6.427,1.414,9.273,3.992c2.449,5.271-9.851,9.073-9.851,9.073
				s1.848-5.32,1.922-7.013C1300.479,192.47,1299.064,187.99,1299.064,187.99z"/>
		</g>
		<g id="apple_1_">
			<path fill="#658113" d="M1227.858-2.771c0,0,0-30.276,36.706-20.898l4.286,1.875c0,0-7.77,4.628-9.108,7.673
				c-1.341,3.044-10.985,18.852-24.382,17.512l-7.502-1.875c0,0,12.86-17.414,21.701-19.826c8.842-2.412-8.686-0.157-15.003,5.894
				C1228.239-6.367,1227.858-2.771,1227.858-2.771z"/>
			<path fill="#658113" d="M1291.455,63.842c-1.869-28.277-13.058-44.85-30.462-49.247c-16.742-4.229-36.412,3.411-36.412,3.411
				c0.162-3.246,1.873-12.37,0.866-21.453c-1.321-11.943-4.969-16.892-6.329-20.094c-2.393-5.634-14.582-4.584-14.582-4.584v10.291
				c0,0,2.881,2.628,6.638,3.38c3.758,0.751,7.708,13.9,7.708,13.9s1.44,13.604-2.711,18.31c-0.82,0.931-3.521,1.715-3.521,1.715
				c-51.453-14.643-60.949,28.544-60.197,57.097c0.344,13.104,3.774,25.553,13.49,38.377c11.453,15.118,25.66,22.351,32.931,22.754
				c17.206,0.957,16.749-4.879,21.44-5.115c2.645-0.134,6.165,3.368,9.153,3.86c13.526,2.218,21.389,1.372,27.407-1.939
				C1274.396,124.864,1294.084,103.667,1291.455,63.842z M1256.862,64.308c-8.25,6.218-11.941,5.86-11.941,5.86
				s6.829-8.089,6.046-11.551c-0.784-3.46-2.029-11.177,5.308-12.737C1263.614,44.322,1265.112,58.09,1256.862,64.308z"/>
		</g>
	</g>
</g>
</svg>
